<?xml version="1.0" standalone="no"?>
<!DOCTYPE svg PUBLIC "-//W3C//DTD SVG 20010904//EN" "http://www.w3.org/TR/2001/REC-SVG-20010904/DTD/svg10.dtd">
<svg version="1.0" xmlns="http://www.w3.org/2000/svg"
    width="500.000000pt" height="500.000000pt" viewBox="0 0 500.000000 500.000000"
    preserveAspectRatio="xMidYMid meet">

    <g transform="translate(0.000000,500.000000) scale(0.100000,-0.100000)"
        fill="#3B82F6" stroke="none">
        <path
            d="M0 2500 l0 -2500 2500 0 2500 0 0 2500 0 2500 -2500 0 -2500 0 0
-2500z m2965 1344 c20 -21 13 -44 -39 -119 -43 -62 -73 -78 -102 -55 -23 20
-17 47 26 110 54 80 83 96 115 64z m-368 -167 c12 -12 66 -116 120 -232 l99
-210 63 -6 c52 -5 68 -11 93 -37 42 -42 50 -115 18 -166 -12 -20 -28 -40 -36
-44 -12 -7 3 -47 87 -223 119 -251 125 -282 70 -331 -29 -26 -39 -29 -74 -25
-24 3 -54 18 -76 36 -96 81 -183 111 -327 111 -90 0 -159 -9 -241 -31 l-43
-12 0 -49 c0 -46 -2 -50 -45 -80 -53 -37 -54 -25 22 -185 45 -95 56 -128 57
-171 1 -48 -2 -56 -32 -83 -24 -22 -42 -29 -73 -29 -71 0 -88 17 -218 219
l-123 191 -68 -6 c-101 -10 -169 14 -241 86 -41 40 -61 70 -74 109 -36 111 0
252 82 320 18 15 116 68 219 119 276 137 357 194 451 320 89 117 130 228 117
311 -16 101 103 169 173 98z m745 -333 c11 -24 10 -29 -20 -53 -17 -15 -55
-39 -84 -54 -46 -24 -54 -25 -72 -13 -40 26 -27 57 44 104 76 50 115 55 132
16z m62 -640 c72 -19 86 -28 86 -59 0 -44 -23 -50 -108 -31 -80 19 -112 38
-112 66 0 42 37 49 134 24z m-1518 -1315 l28 -91 25 89 c23 76 29 88 50 91 18
3 22 0 17 -15 -3 -10 -21 -65 -39 -123 -26 -85 -37 -106 -53 -108 -18 -3 -25
12 -57 116 -20 66 -37 122 -37 126 0 3 9 6 20 6 15 0 24 -17 46 -91z m327 59
c29 -39 34 -132 10 -177 -32 -62 -108 -66 -143 -8 -34 55 -24 173 18 205 29
22 92 11 115 -20z m267 17 c0 -11 -11 -15 -40 -15 l-40 0 0 -110 c0 -103 -1
-110 -20 -110 -19 0 -20 7 -20 110 l0 110 -35 0 c-24 0 -35 5 -35 15 0 12 17
15 95 15 78 0 95 -3 95 -15z m220 0 c0 -12 -13 -15 -60 -15 l-60 0 0 -35 0
-35 50 0 c43 0 50 -3 50 -20 0 -17 -7 -20 -50 -20 l-50 0 0 -40 0 -40 60 0
c47 0 60 -3 60 -15 0 -12 -16 -15 -80 -15 l-80 0 0 125 0 125 80 0 c64 0 80
-3 80 -15z m110 -41 l0 -56 46 56 c33 41 52 56 70 56 25 0 25 -1 -15 -51 -23
-29 -41 -56 -41 -61 0 -5 18 -36 40 -68 22 -32 40 -61 40 -64 0 -4 -11 -6 -24
-6 -18 0 -32 12 -56 51 -26 42 -33 49 -45 39 -9 -7 -15 -29 -15 -51 0 -32 -3
-39 -20 -39 -19 0 -20 7 -20 125 0 118 1 125 20 125 18 0 20 -7 20 -56z m334
-61 c20 -65 36 -121 36 -125 0 -5 -9 -8 -19 -8 -13 0 -21 9 -26 30 -6 27 -10
30 -45 30 -33 0 -39 -4 -49 -30 -6 -20 -17 -30 -30 -30 -12 0 -19 5 -16 13 2
6 20 63 40 125 49 152 59 151 109 -5z" />
        <path
            d="M2513 3618 c-6 -7 -13 -49 -15 -93 -13 -213 -123 -357 -430 -563
l-77 -52 24 -52 c45 -102 154 -328 157 -328 3 0 41 13 86 30 281 102 561 91
720 -30 56 -43 98 -53 88 -22 -16 47 -524 1116 -533 1119 -5 2 -15 -2 -20 -9z" />
        <path
            d="M2860 3145 c0 -2 10 -25 22 -49 17 -35 25 -43 35 -34 30 24 7 88 -32
88 -14 0 -25 -2 -25 -5z" />
        <path
            d="M1805 2833 c-139 -70 -185 -125 -185 -223 0 -118 93 -219 203 -220
35 0 175 48 245 84 l30 16 -91 195 c-51 107 -96 195 -102 194 -5 0 -50 -20
-100 -46z" />
        <path d="M2238 2466 c-31 -11 -38 -36 -10 -36 25 0 44 15 40 32 -2 11 -9 12
-30 4z" />
        <path
            d="M2063 2384 l-52 -25 29 -47 c107 -170 199 -307 213 -316 20 -13 50 2
55 26 4 20 -170 388 -182 387 -6 0 -34 -12 -63 -25z" />
        <path
            d="M2120 1430 c-15 -15 -20 -33 -20 -73 0 -62 21 -100 53 -95 54 8 64
146 13 180 -17 12 -24 10 -46 -12z" />
        <path d="M3076 1378 c-10 -38 -7 -48 15 -48 18 0 20 4 14 28 -9 39 -21 47 -29
20z" />
    </g>
</svg>